<svg id="Layer_1" data-name="Layer 1" xmlns="http://www.w3.org/2000/svg" xmlns:xlink="http://www.w3.org/1999/xlink" width="340.83" height="97.15" viewBox="0 0 340.83 97.15">
  <defs>
    <style>
      .cls-1 {
        fill: none;
      }

      .cls-2 {
        clip-path: url(#clip-path);
      }

      .cls-3 {
        fill: #231f20;
      }
    </style>
    <clipPath id="clip-path" transform="translate(-11.25 -11.61)">
      <rect class="cls-1" x="11.25" y="11.61" width="340.83" height="97.15"/>
    </clipPath>
  </defs>
  <title>dots_logo</title>
  <g class="cls-2">
    <path class="cls-3" d="M318.69,108.75c15.88,0,32.13-7.56,32.51-26.33.25-15.75-20.54-22.3-32.13-25.7-10.84-3.28-26.33-8.82-27-19,1.13-12.6,13.48-18.9,25.07-18.9,13,0,21.8,5.17,29.61,11.59l5.29-5c-9.2-7.69-19.66-13.73-34.9-13.73-16.13,0-32.51,8.44-32.51,26,0,16.63,20,22.68,32.13,26.08C328.14,67,344,72.59,343.89,82.8c-.13,12.85-13,18.77-25.2,18.77-13,0-21.92-5.17-29.74-11.59l-5.17,5c9.2,7.56,19.53,13.73,34.9,13.73M239.31,21.18h33V14H199v7.18h33v85.18h7.31ZM18.56,99.3V21.18H35.82c27,0,40.19,19.4,40.19,38.68C76,79.52,62.41,99.3,36.07,99.3Zm17.51,7.06c31.25,0,47.25-23.31,47.25-46.49S67.57,14,35.82,14H11.25v92.36Z" transform="translate(-11.25 -11.61)"/>
    <path class="cls-3" d="M149.25,90.52a4.27,4.27,0,0,1-2.56.2c-1.93-.19-3.87-.83-5.77-.71-3,.19-4.08-.55-4.13-3.62,1,.39,2,.83,3,1.13a3.91,3.91,0,0,0,1.39-.13,5,5,0,0,0-.69-1.27c-.61-.61-1.36-1.07-2-1.66a3.42,3.42,0,0,1-1.09-4.12,3.23,3.23,0,0,1,3.68-2c1.27.18,2.56.3,3.84.44,1.81.2,3.28,1.42,3.26,2.94,0,1.31-1.21,2.81-2.27,3.83-.9.86-2.34,1.16-3.77,1.81A4.81,4.81,0,0,0,149,84.95c1.11,1.3,1.32,4.81.23,5.57m-1.84,14.42c-2.08,3.37-6.5,3.18-8.84,0-2.56-3.44-2.8-7.64.55-10.46.3-.25.65-.65,1-.64a31.31,31.31,0,0,1,6.25.41c2,.47,2.19,1.4,2.64,5.19-.49,1.84-.6,3.92-1.56,5.47m-11.72-11c-.81,1.27-.9,3-1.42,4.91a15.62,15.62,0,0,0-8.08-5.34c-1-.34-1.76-1.65-2.69-2.45-.53-.46-1.21-.75-1.77-1.19-.33-.26-.8-.67-.78-1a1.38,1.38,0,0,1,.83-1c2.88-.8,4-3.13,5-5.56.57-1.44,1.38-2.15,3-2a6,6,0,0,0,2.57-.3c1.59-.58,1.84.19,1.59,1.42A9,9,0,0,0,135.34,89c1.08,1.48,1.56,3,.36,4.92M113.32,79.82c-2.12-1-.6-2.75-.49-4.07.14-1.59,3.9-4.42,5.71-4.6.36,3.69,2.94,5.86,5.61,7.93a2.08,2.08,0,0,1,.39,3,49.79,49.79,0,0,1-3.89,4.72,15.47,15.47,0,0,0-7.32-7m3.06,6c-.94-.84-2.67-.91-2.65-3.43l3.13,3-.47.47m-6.3-7.32c-.2,1.26-2.24,2.26-4.49,2.1,1.68-4.27.72-7.95-2.75-10.93l-.91-.79c-2.31-2-2.13-1.92-.86-4.69s2.26-5.83.92-9c-.72-1.74.53-2.81,3.18-2.76,0,.31.12.68,0,.92-2.36,4.32.36,7.33,2.74,10.34,1.77,2.24,4.58,2.66,7.1,3.56,1,.36,2,.77,3.5,1.32-5.68,1.42-7.66,5.21-8.42,10m-6.82,1.34c-.57-2-.81-4-1.67-5.6s-2.33-2.94-3.69-4.57c1.84-1,2.88.67,3.84,1.35,2.37,1.67,2.91,5.55,1.51,8.83m4.73-27c.55-.82,2-1.08,3-1.6l-1.36,11.08A7.18,7.18,0,0,1,108,52.82m4.36,4.53A18.09,18.09,0,0,1,115,52.4c.68-1,2.69-.07,3.53.9a10.23,10.23,0,0,1,2.54,6.85c0,1,.57,2,.34,2.83A9,9,0,0,1,119.57,66c-.26.32-1.05.22-1.6.31l-.07-.56,1.42-.69c-.2-.26-.28-.47-.43-.54a1.23,1.23,0,0,0-.59,0c-4.63.38-7.27-2.68-6-7.2m.15-18c0-.26.09-.53.07-.79-.21-3.5.05-3.77,3.61-3.32,1.51-.4,3-.81,4.53-1.19a2.07,2.07,0,0,1,.88,0c.12.47.33,1.06.15,1.45-1,2.09-.66,4.18-.08,6.25.71,2.55-.73,4.21-3.42,4-3-.25-5.74-3.83-5.75-6.34M121,31.44c-1.82,1.69-3.72,2.62-5.58.68,2.55-2.25,3.55-2.35,5.58-.68m1.81-4.79c0,2,0,2-3.34,1.42l3.34-1.42M125,36.21l-.27,5a3.13,3.13,0,0,1,.27-5m.52,28.35c1.71-1.37,3.48-.09,5.12.47,3,1,4.08,3.65,4.53,6.35a5.55,5.55,0,0,1-2.53,5.94,7.6,7.6,0,0,1-2.16,1c-1.54.37-3,.3-3.4-1.68-.68-3.46-2.94-5.7-6.06-7.55a55.87,55.87,0,0,1,4.5-4.54m-3.34-10.49c2,.51,2.22,2.17,2.51,3.57.51,2.46-.17,3.86-2.41,5,.6-3,1.74-5.83-.1-8.58m3.37-7.35c4.71,2.19,5.89,3,11.49.27-.58.94-1.19,1.49-1.25,2.08-.41,4-2.34,7.89-1.18,12s2.68,6.76,8.89,7.17l-6.28,2c-.38-.89-.69-1.75-1.1-2.57a9.89,9.89,0,0,0-7.21-5.36c-1.54-.33-2.72-.65-1.86-2.92.47-1.25-.32-3-.72-4.54-1-3.75-3.83-5.53-7.85-6.39a7.11,7.11,0,0,1,1.31-.84c1.33-.42,2.67-.83,4-1.12a2.93,2.93,0,0,1,1.73.16M126.7,34.6c-.59-1.53.15-2.21,1.85-1.81s3.49.61,5.2,1.06c.36.09.7.86.77,1.35a10.68,10.68,0,0,1-.15,2.18l-.34.1a43.64,43.64,0,0,0,1.31,4.46c.82,2,.51,2.6-1.46,3.7-2.85,1.59-5.05,0-7.33-1.21a1.48,1.48,0,0,1-.33-1.34c.91-2.8,1.64-5.54.49-8.5m17.57,27.82c.58.23,1.41-.25,2.13-.25a1.56,1.56,0,0,1,1.19.52,1.27,1.27,0,0,1-.36,1.16c-1.36,1.09-2.8,2.1-4.17,3.1-1.71-.75-3.32-1-4.32-2a8.85,8.85,0,0,1-3.17-6.33c0-.47.51-1,.79-1.43.4.27.94.45,1.18.83,1.58,2.5,4.22,3.37,6.74,4.39M140.7,31.16c1-.36,2.35-1.25,3.1-.93a13.36,13.36,0,0,1,4.26,3.14c1.64,1.75,1.71,7.92.12,9.5a5.29,5.29,0,0,1-3,1.17c-1.83.18-3.68.05-5.63.05,0-1.8.08-3.75,0-5.69a5.67,5.67,0,0,0-.8-2.18,3.46,3.46,0,0,1,2-5.06M154.2,28a37,37,0,0,0-1.75,4.08c-1.29,4.5,1.45,7.48,4.34,10.15a42.32,42.32,0,0,0,6.48,4.48,20,20,0,0,0,3.4,1.3c-.55.44-.88.92-1.26,1-4,.51-6,3.17-6.87,6.76a2.91,2.91,0,0,1-2.45,2.44,23.8,23.8,0,0,0-4.2,2.06,11,11,0,0,1,.56-1.71c2.26-4,1.93-6.87-.94-10.35-1.44-1.75-2.33-3.86-1-6s.94-4.61.55-6.9a31.79,31.79,0,0,0-1.62-4.88L154.2,28m.67,3.1c.51-2.41,4.65-3.64,7.92-2.6-2.36,3.69-4.75,7.2-4.17,11.84l-1,.31c-.86-1.06-2.19-2-2.47-3.2a15,15,0,0,1-.3-6.36m12.63,1.57c.55,1,1,2.11,1.29,2.7a6.87,6.87,0,0,1-4.84,6.75c-1.6.4-2.93-.54-2.94-2.75,0-2.67.48-5.39,2.6-7.4,1.79-1.69,2.72-1.51,3.9.71m2.63-1.13.46-.24c1.74,2,3.49,4,3.15,7a1.84,1.84,0,0,1-.53,1.22c-1.41,1-2.9,1.83-4.49,2.82.82-1.82,2-3.43,2.2-5.15s-.48-3.74-.77-5.61M178,42.34a9.06,9.06,0,0,1,5.48,7.27l.51.22c-.67,1.5-1,3.49-2.11,4.39a5.88,5.88,0,0,1-6.19,1,3.16,3.16,0,0,1-.93-.93c-1.42-1.72-2.74-3.53-4.28-5.14-1-1.08-.69-1.74.43-2a5.22,5.22,0,0,0,4-3.66c.56-1.51,1.69-1.65,3.1-1.11m-13.61,2.27c1-.66,1.77-1.16,2.54-1.59a.73.73,0,0,1,.69.09,1.07,1.07,0,0,1,.14.88c-.7,1.17-1.66,1.62-3.37.62m8.11,16.69c-1.46,3.06-1.46,3.06-3.8,4.24-1.2-3.69-4-5.66-7.17-7.21-1.29-.63-.58-1.54-.35-2.39.83-3,2.51-4.66,5-4.67a3.06,3.06,0,0,1,1.84.95c1.09,1.05,1.93,2.38,3.08,3.33,2.4,2,2.73,3,1.43,5.74m-1.91,13.23a2,2,0,0,1,2.3,2.15,13.19,13.19,0,0,0,.28,2.36l.34.17c-.65,1.53-1.24,3.08-2,4.56-.22.44-1,1-1.36.88-.64-.14-1.54-.63-1.7-1.17-.69-2.32-1.33-4.76-.31-7.09a3.52,3.52,0,0,1,2.43-1.86m4.1-.06c1.64-.52,4,1,5.38,3.52s1.07,7.18-.44,8.47-5.43,1.61-7,.35c2.75-3.86,3.83-7.86,2.12-12.34M166,85.81c-.67-.06-1.5.1-2-.23a7.55,7.55,0,0,1-3.5-6.42c0-1.52.14-2.56,1.86-2.94a22.6,22.6,0,0,0,3.32-1.35,12.14,12.14,0,0,1-.34,1.93,8,8,0,0,0,.5,7.4c.25.41.1,1.07.13,1.61m-4.28-24.14a1.33,1.33,0,0,1,1.25-.2c1.21.89,2.54,1.8,2.08,3.85-1.91.06-2.76-1.14-3.45-2.45a1.28,1.28,0,0,1,.13-1.2m-1.9,11c-.23.42-1.54.8-1.8.57-1.72-1.51-4.76-2-4.28-5.3-1.79-1-1.48-2.61-.81-4a6.84,6.84,0,0,1,2.54-3c2.21-1.16,2.69-.7,3.47,1.65s2.7,3.86,4.93,4.9l1.35.62c-.32.37-.48.74-.72.82a7.57,7.57,0,0,0-4.69,3.75M151,56.92a13.61,13.61,0,0,1-.69-2,8.25,8.25,0,0,0-7-6,2.33,2.33,0,0,1-1-.18,7,7,0,0,1-1-.81,5,5,0,0,1,1.29-.45c1.11-.07,2.23.07,3.33,0,2.42-.26,3.72.5,4.46,2.83.55,1.73,1.07,3.48,1.51,5.24a3.8,3.8,0,0,1-.21,1.4H151m-5,3.52c-2.65,0-6.29-2.38-7.3-4.54-.63-1.35-.59-2.65.49-3.45s2.7-1.78,3.86-1.56a6.36,6.36,0,0,1,5.2,4.62,11.78,11.78,0,0,0,.4,1.13c1,2.66.24,3.8-2.64,3.79m.56,12.34c1.78,1.44,3,2.92,2.4,5.61a14.66,14.66,0,0,1-2.69-1c-2.33-1.46-4.66-2.27-7.31-.78a1.76,1.76,0,0,1-1.45-.2c-.17-.1-.08-.84.05-1.23,1.57-4.58,5.22-5.48,9-2.42M117.43,94.12a22.21,22.21,0,0,1-3.12,1.31l-.47-.89,3-2.19.66.17c0,.56.21,1.46,0,1.6m20.68-71.25c-2.53-3.51-2.45-6,0-6.52Zm13.31,75.31c0-.33,0-.66,0-1,0-1.15-.61-2.86-.07-3.35a13.12,13.12,0,0,1,5-2.71c1-.29,2.37.43,3.47.91.23.1.28,1.33,0,1.76-2,3-1.55,6.06-.64,9.19a6.69,6.69,0,0,1,.19.85c.74-.32,1.45-.69,2.17-1-.05-.07-.15-.13-.18-.2-1.1-2.69-.05-5.13,1.25-7.9,1.69,1.25,1.79,3,1.9,4.48a7.73,7.73,0,0,1-.19,2.13c.88-.52,1.77-1,2.62-1.6a7.44,7.44,0,0,0-1.09-5c-.42-.67-1-2-.75-2.2a4.17,4.17,0,0,1,2.67-1.07,5.47,5.47,0,0,1,2.85,1.32,7,7,0,0,1,1.67,2.64c.61-.56,1.22-1.13,1.8-1.72a9.64,9.64,0,0,0-2.78-2.8c-1.83-1.17-4.71-1.24-7-1-1.46.18-2.73.56-4.13-.1a8.67,8.67,0,0,0-7.18,0,1.93,1.93,0,0,1-.82.11c-.21-2.35-.43-4.53-.59-6.72a28.48,28.48,0,0,1-.15-4.15,9.55,9.55,0,0,0-5.3-9.32c-1.15-.61-1.23-1.34-.18-2.12s2.36-1.71,3.73-2.71a5.59,5.59,0,0,1,.52,1.51c.06,4.5,2.68,7.2,6.44,9a2.52,2.52,0,0,1,1.72,2.53,25.58,25.58,0,0,0,.82,5.68c.92,3.3,3.56,4.39,6.72,4.7,2.16.22,4.46.22,6.41,1a6.37,6.37,0,0,0,5.5-.06,45.45,45.45,0,0,0,8.51-19.49c-1.16,1.88-2.25,3.6-3.29,5.34-.59,1-1.31,1.53-2.11.36-1.63-2.38-4.16-3.15-6.7-3.92-.57-.17-1.27-.1-1.73-.41-1.07-.72-2-1.6-3-2.42l2.5-2.38A9.92,9.92,0,0,0,175.26,59c0-.32,0-.64,0-1.28H182c-1,4.63.25,8.9,4.39,11.82a45.8,45.8,0,0,0,.63-6.11A9.75,9.75,0,0,1,185.47,60a4.48,4.48,0,0,1,1.26-3.67,45.34,45.34,0,0,0-3.85-13.61,15.43,15.43,0,0,0-3.5-2.11c-2.82-1-3.83-2.74-3.71-5.67.09-2.27-3.87-6-6.41-6.47l-1.88-.34,3.09-1.59c-.46-.38-.95-.71-1.42-1.07a4.09,4.09,0,0,1-4.29-.68,32,32,0,0,1-2.61-2.08,4.47,4.47,0,0,1-.82-2c-.73-.36-1.45-.74-2.2-1.06.07.48.13,1,.25,1.43a25,25,0,0,0,1.87,4.15l-6,1.52a2.17,2.17,0,0,1,.11-.88,8,8,0,0,0,.52-7.42c-1-.36-2.12-.66-3.2-.94,2.31,3.53,2.42,7,.19,9.23-1.48,1.47-4.95,1.8-7,.26,4.33-1.93,4.89-5.88,5.86-9.75-1-.23-1.93-.42-2.91-.58.06.13.13.27.17.39.89,2.66-.93,6.69-3.39,8.1a3.22,3.22,0,0,1-4-1.1c-.63-1.33-1-2.77-1.52-4.17a7.1,7.1,0,0,1,1.33-3.9h-.27a46.24,46.24,0,0,0-8.6.83c.24.08.5.15.74.24a2,2,0,0,1,1.09,1.46c-.06,3.86,1.84,6.59,4.85,8.72.92.65,1,1.21-.06,1.76-.12.06-.27.1-.35.19-2.11,2.76-4.57,2.69-7.58,1.41-1.32-.56-3.13-.11-4.7.07-1.32.15-2-.11-1.65-1.56.54-2.31,1.15-4.6,1.62-6.92.26-1.31.39-2.65.53-4-.7.22-1.37.49-2.05.75a5.29,5.29,0,0,1-.64,2.37c-.68-.44-1.32-.87-2-1.31q-1.17.52-2.3,1.1a17.14,17.14,0,0,1,1.38,1.24c1,1,.49,2-.43,2.7a4.25,4.25,0,0,1-6.06-.88c-.49.34-1,.71-1.44,1.07a7.22,7.22,0,0,0,4.83,2.21V28c-.71.18-1.43.33-2.13.54a14.55,14.55,0,0,0-2.23.79c-.65.32-1.57,1.28-1.78,1.14a7.25,7.25,0,0,1-2.23-2.28c-.57.52-1.14,1-1.69,1.59.26.4.49.8.79,1.19a6.08,6.08,0,0,1,1.41,5.53,11.73,11.73,0,0,0,1.4,8.27c.68,1.31,2.85,1.87,4.37,2.73a2.63,2.63,0,0,1,1.3,1c-1.54,0-3.08,0-4.61,0a9.66,9.66,0,0,0-2.91.29c-1.41.5-2-.1-1.46-1.21,1.36-2.77-.3-5-1-7.42-.34-1.13-1.57-2-2.46-3-.52-.54-1.14-1-1.7-1.53a45.53,45.53,0,0,0-5.94,11.9c3.74-.84,4.68-3.93,5.5-7.14a6.32,6.32,0,0,1,.79-1.42c.38.43,1,.8,1.11,1.29A52.8,52.8,0,0,1,106,46.58a3.62,3.62,0,0,1-3.29,3.75A7.14,7.14,0,0,1,97,49.07c-.29,1-.55,2-.77,3,1.56.76,3.15,1.51,3.78,3.42a8.38,8.38,0,0,1,.65,1.77c.27,3.38-1.27,7.65-5.28,8.63a45.53,45.53,0,0,0,.89,5.79A5.27,5.27,0,0,1,98.18,73c2.11,2.22,2.16,5,2.11,7.71a1.82,1.82,0,0,1-.54,1c.53,1.09,1.09,2.15,1.69,3.18.28-.23.53-.46.84-.69a8.28,8.28,0,0,1,.07,1.55c0,.19,0,.36-.05.54a46.11,46.11,0,0,0,2.93,4.12,4.65,4.65,0,0,1-.3-1.61,12.21,12.21,0,0,1,1-5.24c1.22-2.5,3.86-2.38,5.2,0,1,1.8,3.15,3.42,7,5.23-.42.34-.65.69-.9.71-3.07.23-4.82,2.31-6.39,4.56-.54.77-1,1-1.53.77a46.2,46.2,0,0,0,4,3.4l4.86-1.72,0-.07.05,0,0,0,.11-.07a16,16,0,0,1,1.52-2.59c.33-.4,1.12-.44,1.7-.64l.42.91-3.64,2.32-.06.11-.07,0a15.47,15.47,0,0,0-1.14,4.27c.88.54,1.77,1.08,2.69,1.56-.1-.46-.22-.92-.33-1.38a3.59,3.59,0,0,1,2.74-4.14,2.81,2.81,0,0,1,2.11.56c.38.28.4,1.1.5,1.69.32,1.91-.67,3.43-1.56,4.94.89.38,1.81.68,2.72,1,1.13-1.71,1.19-3.8,1.16-5.93,0-.85-.12-1.7-.2-2.67,3.52-.13,7.13,5.17,6.53,8.32a6.46,6.46,0,0,1-.82,2.09c.73.14,1.47.23,2.22.34l1.05-1.89,1.33,2.06-.16.11c1.36.12,2.73.21,4.13.21a46.27,46.27,0,0,0,7.25-.62,20.35,20.35,0,0,1,2-1.74,2.48,2.48,0,0,1,2.08-.19c.49.21,1,.47,1.45.72.91-.26,1.8-.57,2.69-.89a7.32,7.32,0,0,1-5.17-6.7" transform="translate(-11.25 -11.61)"/>
  </g>
</svg>
